<svg width="28" height="28" fill="none" xmlns="http://www.w3.org/2000/svg"><path fill-rule="evenodd" clip-rule="evenodd" d="M11.308 7c0-.173.087-.538.44-.866.343-.317 1.004-.66 2.252-.66 1.248 0 1.91.343 2.251.66.354.328.441.693.441.866h1.616c0-.606-.263-1.407-.96-2.051-.707-.656-1.796-1.09-3.348-1.09-1.552 0-2.64.434-3.349 1.09-.696.644-.959 1.445-.959 2.05h1.616zm0 0v1.82h5.384V7h1.616v1.82h2.774c.446 0 .808.362.808.808v11.033c0 .635-.254 1.242-.704 1.688a2.403 2.403 0 01-1.693.696H8.37c-.633 0-1.242-.25-1.692-.696a2.377 2.377 0 01-.704-1.688V9.628c0-.446.361-.808.807-.808h2.911V7h1.616zm-1.616 5.833v-2.397H7.59V20.66c0 .202.08.397.227.541a.788.788 0 00.554.228h11.123c.21 0 .409-.083.555-.228a.762.762 0 00.226-.54V10.435h-1.966v2.397h-1.616v-2.397h-5.384v2.397H9.692z" fill="#282828"/></svg>