<svg width="28" height="28" fill="none" xmlns="http://www.w3.org/2000/svg"><path d="M22.026 15.037l-8.017 7.713-8.017-7.713m0 0a5.18 5.18 0 01-1.223-1.764 5.061 5.061 0 01.113-4.163 5.208 5.208 0 011.317-1.7 5.389 5.389 0 011.908-1.043 5.494 5.494 0 014.263.442c.64.355 1.199.835 1.639 1.41a5.3 5.3 0 011.64-1.398 5.494 5.494 0 014.252-.428 5.374 5.374 0 011.902 1.042c.553.471 1 1.048 1.313 1.694a5.07 5.07 0 01.122 4.15 5.186 5.186 0 01-1.212 1.765" stroke="#282828" stroke-width="1.615" stroke-linecap="round" stroke-linejoin="round"/></svg>