<svg width="121" height="34" fill="none" xmlns="http://www.w3.org/2000/svg"><path d="M82.015 9.264h4.759v.922c2.864-1.17 5.647-1.73 7.901.809 1.285-.544 2.454-1.254 3.721-1.55 3.689-.874 6.256 1.36 5.796 5.125-.46 3.766-1.188 7.517-1.795 11.291h-4.824c.263-1.681.51-3.312.791-4.944.295-1.813.61-3.627.906-5.436a.155.155 0 01.015-.082c.182-1.369-.28-2.407-1.2-2.67-1.005-.28-2.256.28-2.7 1.515-.445 1.235-.611 2.548-.849 3.841-.412 2.424-.773 4.879-1.203 7.304a.814.814 0 01-.526.51c-1.416.05-2.849.015-4.364.015.297-1.879.594-3.708.89-5.538.28-1.763.593-3.51.848-5.265.147-.957-.28-1.896-1.005-2.258-.724-.362-1.662-.133-2.387.576-.921.907-.97 2.11-1.169 3.263-.509 3.058-.987 6.115-1.498 9.198h-4.807c.906-5.566 1.795-11.055 2.7-16.626zM38.618 24.197c-.509 3.165-1.004 6.181-1.515 9.247h-4.824c1.317-8.077 2.618-16.103 3.935-24.163h4.824c-.05.41-.116.79-.148 1.12.987-.38 1.943-.906 2.962-1.12 3.458-.743 6.322 1.07 7.296 4.482 1.398 4.894-2.061 10.746-7.048 11.859-2.009.421-3.82.009-5.482-1.425zm7.67-7.121c.018-1.869-.69-3.098-1.865-3.543-1.176-.445-2.535.049-3.54 1.268a5.372 5.372 0 00-1.235 4.04c.115 1.22.626 2.24 1.866 2.668 1.188.413 2.206-.032 3.08-.839a5.252 5.252 0 001.695-3.594zM.126 21.79c1.103-.923 2.173-1.813 3.244-2.718.477.545.89 1.104 1.383 1.566 1.188 1.138 2.584 1.153 4.072.644 1.432-.494 2.353-1.45 2.616-2.985.17-1.038-.13-1.91-1.036-2.488-.642-.411-1.334-.743-2.01-1.104-.41-.214-.837-.413-1.25-.61-5.8-2.837-4.846-9.197-.663-12.134C9.263.016 12.144.262 15.042 1.65c.625.297 1.202.708 1.867 1.104a666.48 666.48 0 01-2.667 3.312c-.774-.34-1.499-.74-2.272-.972-1.828-.56-3.473.198-4.313 1.913-.56 1.154-.314 2.191.789 2.835 1.102.644 2.24 1.137 3.342 1.73 2.058 1.105 3.563 2.67 3.886 5.096.509 3.725-1.358 6.954-4.807 8.493-4.09 1.79-8.27.52-10.742-3.37zm19.23-12.526h4.841c-.577 3.526-1.12 7.022-1.697 10.5-.23 1.4.17 1.944 1.565 2.06 1.744.147 2.545-.51 2.815-2.209.543-3.43 1.12-6.857 1.696-10.351H33.4c-.33 2.093-.658 4.153-1.004 6.23-.231 1.434-.479 2.868-.725 4.302-.543 3.213-2.684 5.374-5.877 5.9-1.812.298-3.606.313-5.352-.339-2.124-.807-3.242-2.801-2.864-5.06.592-3.632 1.17-7.291 1.778-11.033zm59.533 9.016h-10.35c-.131 1.714.692 3.428 1.927 3.824 2.058.68 3.127-.708 4.132-2.193 1.136.43 2.256.85 3.374 1.269-1.383 2.935-5.514 5.852-9.63 4.485-2.898-.957-4.28-3.214-4.56-6.15-.442-4.532 2.923-9.13 7.319-10.119 3.819-.85 7.178 1.36 7.754 5.266.164 1.145.034 2.365.034 3.618zm-9.913-2.967h5.961c-.494-1.869-1.466-2.852-2.715-2.868-1.367-.017-2.7 1.154-3.246 2.868zm47.203 4.598c1.135.43 2.238.85 3.342 1.254-1.96 4.02-7.722 6.56-11.624 3.41-2.24-1.812-2.913-4.285-2.469-7.02.609-3.875 2.749-6.676 6.519-7.962 4.33-1.483 8.314 1.27 8.594 5.852.066.923.017 1.845.017 2.835h-10.455c-.18 1.616.692 3.313 1.91 3.824 1.317.576 2.454 0 4.166-2.193zm.23-4.549c-.083-1.529-1.284-2.888-2.585-2.934-1.415-.049-3.078 1.451-3.224 2.934h5.809zm-52.01-6.115l-1.235 4.187a5.275 5.275 0 01-.526-.098c-2.289-.71-4.264.46-4.693 2.85-.526 2.918-.97 5.835-1.449 8.753-.049.296-.115.593-.17.922h-4.801c.906-5.554 1.795-11.06 2.7-16.597h4.774c-.015.379-.05.742-.082 1.17 1.663-1.253 3.49-1.418 5.482-1.187z" fill="#9D9FA2"/></svg>