<svg width="18" height="18" fill="none" xmlns="http://www.w3.org/2000/svg"><path fill-rule="evenodd" clip-rule="evenodd" d="M3.058 4.898a.938.938 0 01.896-.664h10.5c.423 0 .78.28.897.664L9.204 8.996 3.058 4.898zm-1.166.264v7.51c0 1.139.923 2.062 2.062 2.062h10.5c1.14 0 2.063-.923 2.063-2.062V5.18m-1.125 1.043v6.449c0 .518-.42.937-.938.937h-10.5a.938.938 0 01-.937-.937v-6.45l5.875 3.918a.562.562 0 00.624 0l5.876-3.917zm1.125-1.061a2.063 2.063 0 00-2.063-2.053h-10.5a2.062 2.062 0 00-2.062 2.053" fill="#282828"/></svg>